<?xml version="1.0" standalone="no"?>
<!DOCTYPE svg PUBLIC "-//W3C//DTD SVG 20010904//EN"
 "http://www.w3.org/TR/2001/REC-SVG-20010904/DTD/svg10.dtd">
<svg version="1.0" xmlns="http://www.w3.org/2000/svg"
 width="512.000000pt" height="512.000000pt" viewBox="0 0 512.000000 512.000000"
 preserveAspectRatio="xMidYMid meet">

	<!-- Background (Uncomment this for a visible background, useful for editing.) -->
	<!-- <rect width="100%" height="100%" fill="#FF6A00" /> -->

<g transform="translate(0.000000,512.000000) scale(0.100000,-0.100000)" fill="#FFFFFF" stroke="none">
	<path d="M1217 4193 c-4 -3 -7 -145 -7 -315 l0 -308 1360 0 1360 0 -2 313 -3
	312 -1351 3 c-743 1 -1354 -1 -1357 -5z"/>
	<path d="M1212 3158 l3 -273 270 0 270 0 3 273 2 272 -275 0 -275 0 2 -272z
	m476 0 l-3 -203 -202 -3 -203 -2 0 205 0 205 205 0 205 0 -2 -202z"/>
	<path d="M1950 3155 l0 -275 268 2 267 3 3 273 2 272 -270 0 -270 0 0 -275z
	m470 0 l0 -205 -202 2 -203 3 -3 203 -2 202 205 0 205 0 0 -205z"/>
	<path d="M2662 3158 l3 -273 270 0 270 0 3 273 2 272 -275 0 -275 0 2 -272z
	m478 -3 l0 -205 -202 2 -203 3 -3 203 -2 202 205 0 205 0 0 -205z"/>
	<path d="M3382 3158 l3 -273 270 0 270 0 0 270 0 270 -273 3 -272 2 2 -272z
	m476 0 l-3 -203 -202 -3 -203 -2 0 205 0 205 205 0 205 0 -2 -202z"/>
	<path d="M1215 2737 c-3 -7 -4 -129 -3 -272 l3 -260 270 0 270 0 0 270 0 270
	-268 3 c-210 2 -269 0 -272 -11z m490 -262 l0 -200 -212 -3 -213 -2 0 205 0
	205 213 -2 212 -3 0 -200z"/>
	<path d="M1950 2475 l0 -275 270 0 270 0 0 275 0 275 -270 0 -270 0 0 -275z
	m470 0 l0 -205 -202 2 -203 3 -3 190 c-1 104 0 195 2 202 4 10 52 13 206 13
	l200 0 0 -205z"/>
	<path d="M2665 2737 c-3 -7 -4 -129 -3 -272 l3 -260 270 0 270 0 0 270 0 270
	-268 3 c-210 2 -269 0 -272 -11z m475 -262 l0 -205 -205 0 -205 0 0 205 0 205
	205 0 205 0 0 -205z"/>
	<path d="M3380 2475 l0 -275 273 2 272 3 0 270 0 270 -272 3 -273 2 0 -275z
	m475 0 l0 -200 -202 -3 -203 -2 0 205 0 205 203 -2 202 -3 0 -200z"/>
	<path d="M1212 1828 l3 -273 270 0 270 0 0 270 0 270 -273 3 -272 2 2 -272z
	m478 -3 l0 -205 -205 0 -205 0 0 205 0 205 205 0 205 0 0 -205z"/>
	<path d="M1950 1825 l0 -275 270 0 270 0 0 275 0 275 -270 0 -270 0 0 -275z
	m470 0 l0 -205 -202 2 -203 3 -3 190 c-1 104 0 195 2 202 4 10 52 13 206 13
	l200 0 0 -205z"/>
	<path d="M2665 2087 c-3 -7 -4 -129 -3 -272 l3 -260 270 0 270 0 3 273 2 272
	-270 0 c-209 0 -272 -3 -275 -13z m475 -262 l0 -205 -205 0 -205 0 0 205 0
	205 205 0 205 0 0 -205z"/>
	<path d="M3382 1503 l3 -598 270 0 270 0 0 595 0 595 -273 3 -272 2 2 -597z
	m476 0 l-3 -528 -202 -3 -203 -2 0 530 0 530 205 0 205 0 -2 -527z"/>
	<path d="M1212 1178 l3 -273 270 0 270 0 3 273 2 272 -275 0 -275 0 2 -272z
	m476 0 l-3 -203 -200 0 -200 0 -3 203 -2 202 205 0 205 0 -2 -202z"/>
	<path d="M1950 1175 l0 -275 268 2 267 3 3 273 2 272 -270 0 -270 0 0 -275z
	m470 0 l0 -205 -202 2 -203 3 -3 203 -2 202 205 0 205 0 0 -205z"/>
	<path d="M2662 1178 l3 -273 270 0 270 0 3 273 2 272 -275 0 -275 0 2 -272z
	m478 -3 l0 -205 -202 2 -203 3 -3 203 -2 202 205 0 205 0 0 -205z"/>
</g>

</svg>
